# xmcd CD database file
#
# Track frame offsets:
#	150
#	15145
#	32788
#	49960
#	73966
#	96207
#	111996
#	140516
#	157099
#	175835
#	191063
#	206165
#	217776
#	233052
#
# Disc length: 3318 seconds
#
# Revision: 0
# Processed by: cddbd v1.5.2PL0 Copyright (c) Steve Scherf et al.
# Submitted via: CDex 1.51
#
DISCID=c90cf40e
DTITLE=Jerry Jeff Walker - Best Of The Rest 2 of 2
DYEAR=2005
DGENRE=Country
TTITLE0=Gettin' By
TTITLE1=Viva Luckenbach
TTITLE2=What I Like About Texas
TTITLE3=Keep Texas Beautiful
TTITLE4=Manny's Hat Song
TTITLE5=Down in Texas
TTITLE6=Life on the Road
TTITLE7=Love Changes Everything
TTITLE8=Long Old Dusty Road
TTITLE9=Hard Livin'
TTITLE10=Life's too Short
TTITLE11=Pass it On
TTITLE12=Layin My Life on the Line
TTITLE13=Gonzo Compadres
EXTD=YEAR: 2005
EXTT0=
EXTT1=
EXTT2=
EXTT3=
EXTT4=
EXTT5=
EXTT6=
EXTT7=
EXTT8=
EXTT9=
EXTT10=
EXTT11=
EXTT12=
EXTT13=
PLAYORDER=
